<?xml version="1.0" encoding="utf-8"?>
<!-- Generator: Adobe Illustrator 24.2.0, SVG Export Plug-In . SVG Version: 6.00 Build 0)  -->
<svg version="1.1" id="Layer_1" xmlns="http://www.w3.org/2000/svg" xmlns:xlink="http://www.w3.org/1999/xlink" x="0px" y="0px"
	 viewBox="0 0 1000 1000" style="enable-background:new 0 0 1000 1000;" xml:space="preserve">
<style type="text/css">
	.st0{fill:#EE2424;}
</style>
<g id="tron">
	<path class="st0" d="M806.6,368.2c-31.1-28.7-74.1-72.5-109.1-103.6l-2.1-1.5c-3.4-2.8-7.3-4.9-11.5-6.4l0,0
		c-84.5-15.8-477.5-89.2-485.2-88.3c-2.1,0.3-4.2,1.1-6,2.3l-2,1.6c-2.4,2.5-4.3,5.4-5.4,8.7l-0.5,1.3v7.4v1.1
		c44.2,123.2,219,526.8,253.4,621.5c2.1,6.4,6,18.7,13.4,19.3h1.7c3.9,0,20.7-22.2,20.7-22.2s300.1-363.9,330.5-402.7
		c3.9-4.8,7.4-9.9,10.4-15.3C816.3,382.8,813.2,374,806.6,368.2z M550.9,410.6L679,304.4l75.1,69.2L550.9,410.6z M501.2,403.6
		L280.7,222.9l356.8,65.8L501.2,403.6z M521.1,451l225.7-36.4l-258,310.9L521.1,451z M250.7,240.9l232,196.9l-33.6,287.9
		L250.7,240.9z"/>
</g>
</svg>
